<svg width="30" height="30" viewBox="0 0 30 30" fill="none" xmlns="http://www.w3.org/2000/svg">
<rect width="30" height="30" rx="15" fill="#AD343E"/>
<rect width="15.07" height="15.07" transform="translate(7 7.00015)" fill="#AD343E"/>
<path d="M8.88379 8.88391H10.1396L10.3908 10.1397M11.3955 15.1631H17.6746L20.1863 10.1397H10.3908M11.3955 15.1631L10.3908 10.1397M11.3955 15.1631L9.95571 16.6028C9.56014 16.9984 9.8403 17.6747 10.3997 17.6747H17.6746M17.6746 17.6747C16.981 17.6747 16.4188 18.237 16.4188 18.9306C16.4188 19.6242 16.981 20.1864 17.6746 20.1864C18.3682 20.1864 18.9305 19.6242 18.9305 18.9306C18.9305 18.237 18.3682 17.6747 17.6746 17.6747ZM12.6513 18.9306C12.6513 19.6242 12.089 20.1864 11.3955 20.1864C10.7019 20.1864 10.1396 19.6242 10.1396 18.9306C10.1396 18.237 10.7019 17.6747 11.3955 17.6747C12.089 17.6747 12.6513 18.237 12.6513 18.9306Z" stroke="white" stroke-width="1.5" stroke-linecap="round" stroke-linejoin="round"/>
</svg>
